<?xml version="1.0" encoding="utf-8"?>
<!-- Generator: Adobe Illustrator 22.0.0, SVG Export Plug-In . SVG Version: 6.00 Build 0)  -->
<svg version="1.1" id="Logo" xmlns="http://www.w3.org/2000/svg" xmlns:xlink="http://www.w3.org/1999/xlink" x="0px" y="0px"
	 viewBox="0 0 510.8 114.2" style="enable-background:new 0 0 510.8 114.2;" xml:space="preserve">
<style type="text/css">
	.st0{fill:#252529;}
	.st1{fill:#FBB53B;}
	.st2{fill:#F7DD38;}
</style>
<path class="st0" d="M83,71.9V0h14v72.7c0,3.5,1.6,4.8,3,4.8c0.6,0,1.1,0,2.2-0.2L104,88c-1.7,0.7-4,1.2-7.4,1.2
	C86.7,89.1,83,82.6,83,71.9z M107.6,56.7c0-20.3,13.8-32,29-32s29,11.7,29,32c0,20.2-13.8,31.9-29,31.9S107.6,76.8,107.6,56.7z
	 M150.9,56.7c0-12.2-5.4-20.3-14.3-20.3s-14.3,8.1-14.3,20.3s5.4,20.2,14.3,20.2S150.9,68.9,150.9,56.7z M171.2,98.5
	c0-5.1,3.2-9.6,8.8-13V85c-3.2-2-5.6-5.3-5.6-10.2c0-4.7,6.6-11.4,6.6-11.4v0.5c-4.2-3.2-8.1-9.2-8.1-16.7
	c0-14.5,11.4-22.7,24.1-22.7c3.4,0,6.6,0.6,9.1,1.5H228v11h-11.1c0,0,3.5,6,3.5,10.2c0,13.5-10.3,20.8-23.2,20.8
	c-2.6,0-5.5-0.5-8.2-1.6c-1.8,1.6-3,3.1-3,5.8c0,3.4,2.5,5.5,9.9,5.8h10.8c14.6-0.3,22.3,4.2,22.3,14.7c0,12-12.6,21.5-32.5,21.5
	C182,114.4,171.2,109.2,171.2,98.5z M215.5,95.1c0-4.7-3.8-6.1-10.7-6.1h-8.4c-3.3,0-5.9-0.2-8.2-0.8c-3.3,2.5-4.7,5.2-4.7,8
	c0,5.6,6,8.8,15.5,8.8C208.8,105,215.5,100.4,215.5,95.1z M208.1,46.5c0-7.6-4.6-12-10.6-12s-10.5,4.3-10.5,12s4.7,12.3,10.6,12.3
	S208.1,54.3,208.1,46.5z M231.8,56.7c0-20.3,13.8-32,29-32c15.2,0,29,11.7,29,32c0,20.2-13.8,31.9-29,31.9
	C245.6,88.6,231.8,76.8,231.8,56.7z M275.1,56.7c0-12.2-5.4-20.3-14.3-20.3s-14.3,8.1-14.3,20.3s5.4,20.2,14.3,20.2
	C269.8,76.9,275.1,68.9,275.1,56.7z M300,71.9V0h14v72.7c0,3.5,1.6,4.8,3,4.8c0.6,0,1.1,0,2.2-0.2L321,88c-1.7,0.7-4,1.2-7.4,1.2
	C303.7,89.1,300,82.6,300,71.9z M324.7,56.7c0-20.3,13.8-32,29-32s29,11.7,29,32c0,20.2-13.8,31.9-29,31.9S324.7,76.8,324.7,56.7z
	 M367.9,56.7c0-12.2-5.4-20.3-14.3-20.3s-14.3,8.1-14.3,20.3s5.4,20.2,14.3,20.2S367.9,68.9,367.9,56.7z M388.2,98.5
	c0-5.1,3.2-9.6,8.8-13V85c-3.1-2-5.5-5.3-5.5-10.2c0-4.7,6.5-11.4,6.5-11.4v0.5c-4.2-3.2-8.1-9.2-8.1-16.7
	c0-14.5,11.4-22.7,24.1-22.7c3.4,0,6.6,0.6,9.1,1.5H445v11h-11.1c0,0,3.5,6,3.5,10.2c0,13.5-10.3,20.8-23.2,20.8
	c-2.6,0-5.5-0.5-8.2-1.6c-1.8,1.6-3,3.1-3,5.8c0,3.4,2.5,5.5,9.9,5.8h10.8c14.6-0.3,22.3,4.2,22.3,14.7c0,12-12.6,21.5-32.5,21.5
	C399.1,114.4,388.2,109.2,388.2,98.5z M432.6,95.1c0-4.7-3.8-6.1-10.7-6.1h-8.4c-3.3,0-5.9-0.2-8.2-0.8c-3.3,2.5-4.7,5.2-4.7,8
	c0,5.6,6,8.8,15.5,8.8C425.9,105,432.6,100.4,432.6,95.1z M425.1,46.5c0-7.6-4.6-12-10.6-12s-10.6,4.3-10.6,12s4.7,12.3,10.6,12.3
	S425.1,54.3,425.1,46.5z M456.1,110.5l2.6-11c1.2,0.3,2.9,0.8,4.4,0.8c6.4,0,10.1-4.4,12.1-10.4l1.1-3.8L452.5,26H467l10.5,29.8
	c1.8,5.4,3.6,11.4,5.3,17.2h0.5c1.5-5.6,3.1-11.6,4.7-17.2l9-29.8h13.8l-22,63.6c-5.1,13.7-11.4,22.2-24.7,22.2
	C460.7,111.8,458.4,111.3,456.1,110.5z"/>
<polygon class="st0" points="62.5,0 37.9,70.1 13.4,0 0,0 31.2,89.3 44.3,89.3 75.7,0 "/>
<polygon class="st0" points="37.8,33.4 43.9,53.6 62.7,0 48,0 "/>
<polygon class="st1" points="37.9,70.6 43.9,53.4 27.9,0 13.3,0 15.7,7.1 "/>
<polygon class="st2" points="62.5,0 75.7,0 44.3,89.3 31.2,89.3 "/>
</svg>
